<?xml version="1.0" encoding="UTF-8"?>
<svg xmlns="http://www.w3.org/2000/svg" xmlns:xlink="http://www.w3.org/1999/xlink" width="24px" height="24px" viewBox="0 0 24 24" version="1.1">
<g id="surface1">
<path style=" stroke:none;fill-rule:nonzero;fill:rgb(0%,0%,0%);fill-opacity:1;" d="M 11.109375 0.117188 C 10.636719 0.210938 10.03125 0.449219 9.625 0.703125 C 8.929688 1.128906 8.15625 1.953125 8.15625 2.269531 C 8.15625 2.453125 8.320312 2.625 8.492188 2.625 C 8.625 2.625 8.691406 2.5625 9.085938 2.082031 C 9.511719 1.5625 10.308594 1.054688 10.992188 0.867188 C 11.152344 0.824219 11.539062 0.777344 11.882812 0.765625 C 12.402344 0.746094 12.554688 0.753906 12.914062 0.839844 C 14.183594 1.144531 15.210938 2.054688 15.675781 3.285156 C 15.835938 3.71875 15.898438 4.117188 15.894531 4.6875 C 15.886719 6.445312 14.710938 7.929688 12.960938 8.394531 C 12.441406 8.53125 11.609375 8.53125 11.085938 8.394531 C 10.601562 8.269531 9.941406 7.945312 9.585938 7.65625 C 8.960938 7.148438 8.445312 6.34375 8.25 5.554688 C 8.136719 5.125 8.117188 4.355469 8.203125 3.886719 C 8.265625 3.546875 8.222656 3.414062 8.019531 3.328125 C 7.835938 3.253906 7.648438 3.335938 7.570312 3.53125 C 7.476562 3.75 7.40625 4.476562 7.433594 4.953125 L 7.457031 5.367188 L 7.117188 5.609375 C 6.6875 5.914062 5.957031 6.640625 5.597656 7.121094 L 5.324219 7.476562 L 4.597656 7.476562 C 3.988281 7.480469 3.800781 7.5 3.46875 7.589844 C 1.953125 7.996094 0.746094 9.117188 0.25 10.570312 C -0.078125 11.535156 -0.0742188 12.542969 0.261719 13.554688 C 0.421875 14.039062 0.546875 14.179688 0.789062 14.136719 C 0.882812 14.125 0.988281 14.078125 1.015625 14.03125 C 1.101562 13.917969 1.09375 13.683594 0.988281 13.445312 C 0.742188 12.859375 0.664062 11.882812 0.820312 11.203125 C 1.121094 9.90625 2.089844 8.816406 3.34375 8.386719 C 5.578125 7.617188 7.96875 9.007812 8.410156 11.339844 C 8.675781 12.75 8.105469 14.246094 6.976562 15.109375 C 5.460938 16.25 3.421875 16.179688 2.023438 14.933594 C 1.738281 14.679688 1.613281 14.628906 1.429688 14.699219 C 1.351562 14.734375 1.21875 14.953125 1.21875 15.066406 C 1.21875 15.28125 1.925781 15.84375 2.601562 16.171875 C 3.328125 16.523438 3.722656 16.613281 4.597656 16.617188 L 5.324219 16.617188 L 5.597656 16.972656 C 5.949219 17.4375 6.679688 18.167969 7.105469 18.484375 L 7.4375 18.726562 L 7.4375 19.335938 C 7.4375 20.042969 7.527344 20.511719 7.757812 21.085938 C 8.351562 22.550781 9.679688 23.628906 11.222656 23.902344 C 11.621094 23.972656 12.492188 23.96875 12.898438 23.886719 C 14.617188 23.554688 16 22.261719 16.46875 20.554688 C 16.578125 20.152344 16.640625 19.492188 16.609375 19.101562 L 16.578125 18.765625 L 16.925781 18.496094 C 17.394531 18.136719 18.113281 17.417969 18.449219 16.972656 L 18.726562 16.613281 L 19.242188 16.632812 C 20.46875 16.679688 21.625 16.246094 22.542969 15.394531 C 22.796875 15.164062 22.828125 15.109375 22.828125 14.953125 C 22.828125 14.742188 22.714844 14.625 22.503906 14.625 C 22.382812 14.625 22.289062 14.675781 22.082031 14.867188 C 21.355469 15.535156 20.574219 15.867188 19.613281 15.921875 C 17.382812 16.050781 15.515625 14.28125 15.515625 12.046875 C 15.515625 8.996094 18.871094 7.140625 21.46875 8.757812 C 23 9.707031 23.65625 11.574219 23.078125 13.320312 C 22.9375 13.753906 22.953125 13.902344 23.175781 14.011719 C 23.292969 14.066406 23.328125 14.0625 23.460938 14 C 23.59375 13.9375 23.632812 13.875 23.742188 13.550781 C 24.3125 11.832031 23.90625 10.070312 22.644531 8.808594 C 22.050781 8.21875 21.34375 7.804688 20.53125 7.589844 C 20.203125 7.5 20.011719 7.480469 19.425781 7.476562 L 18.722656 7.476562 L 18.449219 7.117188 C 18.113281 6.675781 17.394531 5.953125 16.925781 5.597656 L 16.578125 5.324219 L 16.613281 4.949219 C 16.785156 2.644531 15.117188 0.5 12.824219 0.0976562 C 12.449219 0.0273438 11.484375 0.0429688 11.109375 0.117188 Z M 7.773438 6.367188 C 7.9375 6.796875 8.328125 7.390625 8.714844 7.796875 C 10.269531 9.421875 12.726562 9.683594 14.601562 8.421875 C 15.265625 7.972656 15.945312 7.148438 16.246094 6.429688 C 16.316406 6.257812 16.382812 6.109375 16.390625 6.097656 C 16.398438 6.089844 16.515625 6.164062 16.648438 6.273438 C 17.0625 6.589844 18.007812 7.601562 17.949219 7.660156 C 17.9375 7.667969 17.792969 7.734375 17.625 7.808594 C 17.015625 8.070312 16.679688 8.3125 16.171875 8.8125 C 15.601562 9.382812 15.296875 9.859375 15.0625 10.546875 C 14.875 11.101562 14.8125 11.46875 14.8125 12.070312 C 14.8125 13.492188 15.507812 14.863281 16.65625 15.730469 C 16.894531 15.910156 17.675781 16.335938 17.914062 16.414062 C 18.042969 16.457031 17.023438 17.570312 16.566406 17.890625 L 16.421875 17.996094 L 16.269531 17.625 C 15.707031 16.25 14.457031 15.210938 12.964844 14.875 C 12.519531 14.773438 11.527344 14.773438 11.085938 14.875 C 9.578125 15.214844 8.339844 16.242188 7.777344 17.625 L 7.625 17.996094 L 7.480469 17.890625 C 7.246094 17.722656 6.660156 17.15625 6.34375 16.785156 L 6.042969 16.433594 L 6.546875 16.195312 C 7.15625 15.90625 7.523438 15.632812 7.976562 15.140625 C 8.746094 14.316406 9.132812 13.375 9.171875 12.210938 C 9.226562 10.855469 8.796875 9.78125 7.828125 8.8125 C 7.316406 8.300781 6.960938 8.058594 6.367188 7.808594 L 6.050781 7.671875 L 6.144531 7.539062 C 6.398438 7.1875 7.523438 6.09375 7.636719 6.09375 C 7.65625 6.09375 7.710938 6.214844 7.773438 6.367188 Z M 12.914062 15.59375 C 13.285156 15.675781 13.898438 15.945312 14.234375 16.175781 C 14.992188 16.691406 15.558594 17.515625 15.800781 18.445312 C 15.933594 18.964844 15.933594 19.800781 15.800781 20.320312 C 15.273438 22.34375 13.261719 23.597656 11.210938 23.175781 C 9.742188 22.871094 8.527344 21.660156 8.222656 20.199219 C 8.117188 19.707031 8.132812 18.90625 8.25 18.445312 C 8.515625 17.382812 9.257812 16.4375 10.214844 15.941406 C 11.066406 15.5 11.960938 15.382812 12.914062 15.59375 Z M 12.914062 15.59375 "/>
<path style=" stroke:none;fill-rule:nonzero;fill:rgb(0%,0%,0%);fill-opacity:1;" d="M 11.082031 17.347656 C 11.035156 17.367188 10.644531 17.59375 10.21875 17.855469 C 9.398438 18.355469 9.289062 18.464844 9.375 18.683594 C 9.484375 18.957031 9.707031 19.003906 10.007812 18.820312 C 10.222656 18.683594 10.265625 18.679688 10.265625 18.773438 C 10.265625 18.882812 10.457031 19.03125 10.601562 19.03125 C 10.683594 19.03125 10.785156 18.984375 10.851562 18.914062 C 10.949219 18.820312 10.96875 18.753906 10.96875 18.519531 L 10.96875 18.238281 L 11.242188 18.0625 C 11.464844 17.910156 11.511719 17.859375 11.523438 17.726562 C 11.550781 17.445312 11.324219 17.253906 11.082031 17.347656 Z M 11.082031 17.347656 "/>
<path style=" stroke:none;fill-rule:nonzero;fill:rgb(0%,0%,0%);fill-opacity:1;" d="M 12.769531 17.335938 C 12.601562 17.359375 12.507812 17.503906 12.523438 17.699219 C 12.539062 17.863281 12.566406 17.902344 12.8125 18.0625 L 13.078125 18.238281 L 13.078125 18.519531 C 13.078125 18.753906 13.097656 18.820312 13.195312 18.914062 C 13.339844 19.0625 13.542969 19.070312 13.679688 18.921875 C 13.734375 18.863281 13.78125 18.789062 13.78125 18.757812 C 13.78125 18.679688 13.828125 18.6875 14.039062 18.820312 C 14.335938 19.003906 14.570312 18.957031 14.667969 18.699219 C 14.75 18.464844 14.648438 18.355469 13.828125 17.855469 C 12.992188 17.34375 12.917969 17.304688 12.769531 17.335938 Z M 12.769531 17.335938 "/>
<path style=" stroke:none;fill-rule:nonzero;fill:rgb(0%,0%,0%);fill-opacity:1;" d="M 11.320312 20.535156 C 10.9375 20.625 10.398438 20.875 10.1875 21.0625 C 9.960938 21.257812 10.121094 21.65625 10.421875 21.65625 C 10.492188 21.65625 10.632812 21.605469 10.726562 21.539062 C 11.023438 21.34375 11.429688 21.21875 11.875 21.195312 C 12.394531 21.167969 12.75 21.242188 13.203125 21.476562 C 13.609375 21.683594 13.679688 21.695312 13.847656 21.558594 C 14 21.4375 14.007812 21.234375 13.867188 21.074219 C 13.71875 20.914062 13.152344 20.644531 12.792969 20.554688 C 12.464844 20.480469 11.625 20.464844 11.320312 20.535156 Z M 11.320312 20.535156 "/>
<path style=" stroke:none;fill-rule:nonzero;fill:rgb(0%,0%,0%);fill-opacity:1;" d="M 10.359375 2.4375 C 10.285156 2.511719 10.265625 2.59375 10.265625 2.882812 C 10.265625 3.296875 10.34375 3.421875 10.613281 3.421875 C 10.855469 3.421875 10.96875 3.253906 10.96875 2.882812 C 10.96875 2.65625 10.945312 2.5625 10.871094 2.464844 C 10.75 2.3125 10.5 2.296875 10.359375 2.4375 Z M 10.359375 2.4375 "/>
<path style=" stroke:none;fill-rule:nonzero;fill:rgb(0%,0%,0%);fill-opacity:1;" d="M 13.175781 2.464844 C 13.101562 2.5625 13.078125 2.65625 13.078125 2.882812 C 13.078125 3.253906 13.191406 3.421875 13.433594 3.421875 C 13.703125 3.421875 13.78125 3.296875 13.78125 2.882812 C 13.78125 2.59375 13.761719 2.511719 13.6875 2.4375 C 13.546875 2.296875 13.296875 2.3125 13.175781 2.464844 Z M 13.175781 2.464844 "/>
<path style=" stroke:none;fill-rule:nonzero;fill:rgb(0%,0%,0%);fill-opacity:1;" d="M 9.050781 5.277344 C 8.910156 5.457031 8.925781 5.539062 9.160156 6.023438 C 9.601562 6.929688 10.4375 7.574219 11.421875 7.761719 C 12.140625 7.898438 12.753906 7.808594 13.453125 7.46875 C 14.058594 7.171875 14.570312 6.671875 14.851562 6.09375 C 15.117188 5.554688 15.136719 5.429688 14.984375 5.277344 C 14.863281 5.160156 14.710938 5.128906 14.554688 5.183594 C 14.511719 5.203125 14.40625 5.375 14.316406 5.574219 C 14.09375 6.050781 13.84375 6.375 13.492188 6.625 C 12.679688 7.191406 11.796875 7.265625 10.929688 6.839844 C 10.382812 6.570312 10.054688 6.234375 9.773438 5.652344 C 9.660156 5.414062 9.53125 5.199219 9.488281 5.183594 C 9.320312 5.117188 9.144531 5.15625 9.050781 5.277344 Z M 9.050781 5.277344 "/>
<path style=" stroke:none;fill-rule:nonzero;fill:rgb(0%,0%,0%);fill-opacity:1;" d="M 2.234375 9.992188 C 1.984375 10.21875 2.058594 10.472656 2.4375 10.6875 L 2.71875 10.851562 L 2.71875 11.140625 C 2.71875 11.398438 2.734375 11.441406 2.839844 11.527344 C 2.910156 11.582031 3.023438 11.625 3.09375 11.625 C 3.234375 11.625 3.421875 11.453125 3.421875 11.324219 C 3.421875 11.257812 3.445312 11.25 3.507812 11.273438 C 3.71875 11.367188 3.886719 11.351562 4.003906 11.230469 C 4.152344 11.085938 4.15625 10.917969 4.023438 10.765625 C 3.890625 10.632812 2.667969 9.941406 2.484375 9.910156 C 2.394531 9.890625 2.324219 9.914062 2.234375 9.992188 Z M 2.234375 9.992188 "/>
<path style=" stroke:none;fill-rule:nonzero;fill:rgb(0%,0%,0%);fill-opacity:1;" d="M 6.65625 9.921875 C 6.398438 10.015625 5.183594 10.71875 5.125 10.808594 C 4.976562 11.035156 5.1875 11.371094 5.453125 11.335938 C 5.535156 11.320312 5.640625 11.296875 5.6875 11.273438 C 5.742188 11.25 5.765625 11.257812 5.765625 11.316406 C 5.765625 11.441406 5.980469 11.625 6.132812 11.625 C 6.355469 11.625 6.46875 11.457031 6.46875 11.128906 L 6.46875 10.847656 L 6.746094 10.6875 C 7.054688 10.515625 7.15625 10.359375 7.082031 10.167969 C 7.011719 9.980469 6.816406 9.867188 6.65625 9.921875 Z M 6.65625 9.921875 "/>
<path style=" stroke:none;fill-rule:nonzero;fill:rgb(0%,0%,0%);fill-opacity:1;" d="M 17.722656 10.246094 C 17.578125 10.429688 17.582031 10.917969 17.734375 11.082031 C 17.882812 11.25 18.078125 11.265625 18.234375 11.109375 C 18.308594 11.035156 18.328125 10.953125 18.328125 10.671875 C 18.328125 10.375 18.3125 10.316406 18.21875 10.226562 C 18.066406 10.082031 17.84375 10.09375 17.722656 10.246094 Z M 17.722656 10.246094 "/>
<path style=" stroke:none;fill-rule:nonzero;fill:rgb(0%,0%,0%);fill-opacity:1;" d="M 20.578125 10.21875 C 20.503906 10.292969 20.484375 10.375 20.484375 10.65625 C 20.484375 11.082031 20.554688 11.203125 20.808594 11.203125 C 21.085938 11.203125 21.164062 11.082031 21.164062 10.65625 C 21.164062 10.339844 21.148438 10.292969 21.050781 10.214844 C 20.910156 10.097656 20.695312 10.101562 20.578125 10.21875 Z M 20.578125 10.21875 "/>
<path style=" stroke:none;fill-rule:nonzero;fill:rgb(0%,0%,0%);fill-opacity:1;" d="M 4 12.417969 C 3.378906 12.648438 2.960938 13.195312 2.921875 13.824219 C 2.898438 14.195312 2.992188 14.410156 3.238281 14.539062 C 3.378906 14.617188 3.523438 14.625 4.679688 14.625 C 6.097656 14.625 6.207031 14.605469 6.375 14.335938 C 6.515625 14.113281 6.492188 13.570312 6.328125 13.242188 C 6.179688 12.933594 5.863281 12.628906 5.539062 12.476562 C 5.3125 12.371094 5.199219 12.351562 4.757812 12.34375 C 4.339844 12.328125 4.195312 12.34375 4 12.417969 Z M 5.21875 13.144531 C 5.417969 13.226562 5.621094 13.449219 5.695312 13.667969 L 5.757812 13.851562 L 4.726562 13.867188 C 4.152344 13.871094 3.679688 13.867188 3.664062 13.855469 C 3.628906 13.8125 3.699219 13.617188 3.8125 13.453125 C 3.988281 13.179688 4.226562 13.078125 4.679688 13.078125 C 4.902344 13.078125 5.128906 13.105469 5.21875 13.144531 Z M 5.21875 13.144531 "/>
<path style=" stroke:none;fill-rule:nonzero;fill:rgb(0%,0%,0%);fill-opacity:1;" d="M 16.789062 13.328125 C 16.65625 13.472656 16.660156 13.664062 16.804688 13.804688 L 16.917969 13.921875 L 21.894531 13.921875 L 22.007812 13.804688 C 22.074219 13.742188 22.125 13.636719 22.125 13.570312 C 22.125 13.503906 22.074219 13.398438 22.007812 13.335938 L 21.894531 13.21875 L 16.890625 13.21875 Z M 16.789062 13.328125 "/>
</g>
</svg>
