<?xml version="1.0" encoding="UTF-8"?>
<svg xmlns="http://www.w3.org/2000/svg" xmlns:xlink="http://www.w3.org/1999/xlink" width="24px" height="24px" viewBox="0 0 24 24" version="1.1">
<g id="surface1">
<path style=" stroke:none;fill-rule:nonzero;fill:rgb(0%,0%,0%);fill-opacity:1;" d="M 2.585938 21.636719 C 1.257812 21.636719 0.1875 20.511719 0.1875 19.144531 L 0.1875 6.695312 C 0.1875 5.324219 1.257812 4.199219 2.585938 4.199219 L 21.355469 4.199219 C 22.6875 4.199219 23.757812 5.324219 23.757812 6.695312 L 23.757812 19.125 C 23.757812 20.492188 22.6875 21.617188 21.355469 21.617188 L 2.585938 21.617188 Z M 2.585938 5.195312 C 1.78125 5.195312 1.144531 5.867188 1.144531 6.695312 L 1.144531 19.125 C 1.144531 19.949219 1.800781 20.625 2.585938 20.625 L 21.355469 20.625 C 22.164062 20.625 22.800781 19.949219 22.800781 19.125 L 22.800781 6.695312 C 22.800781 5.867188 22.144531 5.195312 21.355469 5.195312 Z M 2.585938 5.195312 "/>
<path style=" stroke:none;fill-rule:nonzero;fill:rgb(0%,0%,0%);fill-opacity:1;" d="M 12.695312 9.1875 C 12.394531 9.1875 12.148438 8.945312 12.148438 8.625 C 12.148438 8.304688 12.394531 8.0625 12.695312 8.0625 L 20.382812 8.0625 C 20.679688 8.0625 20.925781 8.304688 20.925781 8.625 C 20.925781 8.945312 20.679688 9.1875 20.382812 9.1875 Z M 12.695312 11.980469 C 12.394531 11.980469 12.148438 11.738281 12.148438 11.417969 C 12.148438 11.101562 12.394531 10.855469 12.695312 10.855469 L 20.382812 10.855469 C 20.679688 10.855469 20.925781 11.101562 20.925781 11.417969 C 20.925781 11.738281 20.679688 11.980469 20.382812 11.980469 Z M 12.695312 14.960938 C 12.394531 14.960938 12.148438 14.71875 12.148438 14.398438 C 12.148438 14.082031 12.394531 13.835938 12.695312 13.835938 L 19.179688 13.835938 C 19.480469 13.835938 19.726562 14.082031 19.726562 14.398438 C 19.726562 14.71875 19.480469 14.960938 19.179688 14.960938 Z M 1.367188 20.773438 C 1.3125 20.773438 1.257812 20.773438 1.199219 20.757812 C 0.898438 20.664062 0.730469 20.324219 0.824219 20.007812 C 1.367188 18.167969 2.644531 16.667969 4.292969 15.882812 L 4.667969 15.695312 L 4.351562 15.414062 C 3.414062 14.605469 2.867188 13.40625 2.867188 12.148438 C 2.867188 9.804688 4.707031 7.914062 6.9375 7.914062 C 9.1875 7.914062 11.007812 9.804688 11.007812 12.148438 C 11.007812 13.40625 10.460938 14.605469 9.523438 15.414062 L 9.207031 15.695312 L 9.582031 15.882812 C 11.175781 16.632812 12.695312 18.507812 13.273438 20.4375 C 13.648438 21.675781 12.882812 21.28125 13.238281 20.8125 C 13.164062 20.925781 12.84375 20.679688 12.488281 20.679688 C 12.1875 20.679688 12.039062 21.261719 12.039062 21.207031 C 11.304688 18.769531 9.207031 16.445312 6.9375 16.445312 C 4.613281 16.445312 2.570312 18.019531 1.875 20.34375 C 1.835938 20.605469 1.613281 20.773438 1.367188 20.773438 Z M 6.976562 9.09375 C 5.34375 9.09375 4.011719 10.460938 4.011719 12.148438 C 4.011719 13.835938 5.34375 15.207031 6.976562 15.207031 C 8.605469 15.207031 9.9375 13.835938 9.9375 12.148438 C 9.917969 10.460938 8.605469 9.09375 6.976562 9.09375 Z M 6.976562 9.09375 "/>
</g>
</svg>
