<?xml version="1.0" encoding="UTF-8"?>
<svg xmlns="http://www.w3.org/2000/svg" xmlns:xlink="http://www.w3.org/1999/xlink" width="24px" height="24px" viewBox="0 0 24 24" version="1.1">
<g id="surface1">
<path style=" stroke:none;fill-rule:nonzero;fill:rgb(0%,0%,0%);fill-opacity:1;" d="M 21.929688 6.050781 C 22.589844 4.605469 23.265625 3.167969 23.941406 1.730469 C 24.144531 1.292969 23.800781 0.675781 23.265625 0.851562 C 21.53125 1.425781 19.785156 1.90625 17.984375 2.238281 C 17.707031 2.292969 17.503906 2.660156 17.597656 2.921875 C 17.800781 3.484375 18.460938 3.671875 19.15625 3.722656 C 18.601562 4.265625 18.058594 4.820312 17.507812 5.328125 C 16.339844 6.414062 15 7.460938 14 8.730469 C 12.769531 7.929688 11.183594 7.199219 9.695312 7.039062 C 9.503906 6.941406 9.285156 6.921875 9.074219 7.019531 C 8.949219 7.054688 8.84375 7.144531 8.773438 7.257812 C 7.316406 8.933594 5.824219 10.574219 4.28125 12.175781 C 3.660156 12.824219 2.695312 13.542969 1.976562 14.351562 C 1.984375 11.882812 1.929688 9.421875 1.640625 7.011719 C 1.566406 6.382812 0.523438 6.078125 0.410156 6.84375 C -0.335938 11.855469 0.132812 17.214844 0.28125 22.261719 C 0.300781 22.890625 0.867188 23.144531 1.339844 23.046875 C 8.226562 23.417969 15.230469 22.878906 22.136719 22.96875 C 23.222656 22.980469 23.222656 21.292969 22.136719 21.277344 C 21.796875 21.273438 21.449219 21.265625 21.109375 21.261719 C 21.011719 15.953125 20.917969 10.621094 20.6875 5.3125 C 20.773438 5.515625 20.859375 5.714844 20.941406 5.921875 C 21.089844 6.300781 21.714844 6.523438 21.929688 6.050781 Z M 1.960938 21.59375 C 1.925781 19.90625 1.945312 18.199219 1.964844 16.492188 C 2.582031 16.3125 3.15625 15.859375 3.6875 15.332031 C 3.464844 17.34375 3.621094 19.425781 3.695312 21.433594 C 3.113281 21.480469 2.535156 21.527344 1.960938 21.59375 Z M 4.1875 21.386719 C 4.035156 19.226562 4.207031 17.054688 4.105469 14.898438 C 4.605469 14.355469 5.0625 13.785156 5.46875 13.363281 C 5.9375 12.882812 6.390625 12.390625 6.847656 11.898438 C 6.550781 14.964844 6.78125 18.164062 6.929688 21.226562 C 6.011719 21.265625 5.097656 21.316406 4.1875 21.386719 Z M 9.480469 21.167969 C 8.851562 21.179688 8.222656 21.179688 7.597656 21.203125 C 7.433594 17.941406 7.585938 14.636719 7.324219 11.390625 C 8.140625 10.507812 8.941406 9.613281 9.734375 8.707031 C 9.527344 12.847656 9.535156 17.023438 9.480469 21.167969 Z M 13.296875 21.148438 C 12.242188 21.140625 11.1875 21.140625 10.132812 21.15625 C 10.3125 17.039062 10.4375 12.847656 10.238281 8.730469 C 10.519531 8.875 10.800781 9.023438 11.101562 9.160156 C 11.898438 9.519531 12.664062 9.949219 13.472656 10.28125 C 13.296875 13.890625 13.347656 17.535156 13.296875 21.148438 Z M 16.613281 21.191406 C 15.726562 21.179688 14.84375 21.160156 13.953125 21.15625 C 14.078125 17.582031 14.183594 13.9375 13.953125 10.363281 C 14.0625 10.34375 14.15625 10.292969 14.238281 10.21875 C 14.285156 10.207031 14.328125 10.199219 14.371094 10.175781 C 15.277344 9.683594 16.085938 9 16.859375 8.273438 C 16.65625 12.574219 16.679688 16.890625 16.613281 21.191406 Z M 17.277344 21.203125 C 17.273438 16.789062 17.367188 12.355469 17.210938 7.945312 C 17.710938 7.460938 18.203125 6.972656 18.695312 6.515625 C 19.214844 6.035156 19.769531 5.558594 20.320312 5.074219 C 20.199219 10.457031 20.222656 15.863281 20.238281 21.25 C 19.253906 21.234375 18.269531 21.21875 17.277344 21.203125 Z M 17.277344 21.203125 "/>
</g>
</svg>
