<?xml version="1.0" encoding="UTF-8"?>
<svg xmlns="http://www.w3.org/2000/svg" xmlns:xlink="http://www.w3.org/1999/xlink" width="24px" height="24px" viewBox="0 0 24 24" version="1.1">
<g id="surface1">
<path style="fill:none;stroke-width:1.5;stroke-linecap:round;stroke-linejoin:miter;stroke:rgb(10.980392%,15.294118%,29.803922%);stroke-opacity:1;stroke-miterlimit:4;" d="M 14 21.710938 C 13.367188 21.898438 12.695312 22 12 22 C 8.132812 22 5 18.867188 5 15 L 5 11.9375 C 5 9.761719 6.761719 8 8.9375 8 L 15.0625 8 C 17.238281 8 19 9.761719 19 11.9375 L 19 15 C 19 16.90625 18.238281 18.636719 17 19.898438 "/>
<path style=" stroke:none;fill-rule:nonzero;fill:rgb(10.980392%,15.294118%,29.803922%);fill-opacity:1;" d="M 8.25 7.5 C 8.25 7.085938 7.914062 6.75 7.5 6.75 C 7.085938 6.75 6.75 7.085938 6.75 7.5 Z M 7.632812 4.582031 C 7.402344 4.925781 7.496094 5.394531 7.839844 5.625 C 8.183594 5.855469 8.652344 5.761719 8.882812 5.417969 Z M 17.25 8.5 L 17.25 7.5 L 15.75 7.5 L 15.75 8.5 Z M 6.75 7.5 L 6.75 8.5 L 8.25 8.5 L 8.25 7.5 Z M 17.25 7.5 C 17.25 4.601562 14.898438 2.25 12 2.25 L 12 3.75 C 14.070312 3.75 15.75 5.429688 15.75 7.5 Z M 12 2.25 C 10.179688 2.25 8.574219 3.175781 7.632812 4.582031 L 8.882812 5.417969 C 9.554688 4.410156 10.699219 3.75 12 3.75 Z M 12 2.25 "/>
<path style="fill:none;stroke-width:1.5;stroke-linecap:round;stroke-linejoin:miter;stroke:rgb(10.980392%,15.294118%,29.803922%);stroke-opacity:1;stroke-miterlimit:4;" d="M 19 14 L 22 14 "/>
<path style="fill:none;stroke-width:1.5;stroke-linecap:round;stroke-linejoin:miter;stroke:rgb(10.980392%,15.294118%,29.803922%);stroke-opacity:1;stroke-miterlimit:4;" d="M 5 14 L 2 14 "/>
<path style="fill:none;stroke-width:1.5;stroke-linecap:round;stroke-linejoin:miter;stroke:rgb(10.980392%,15.294118%,29.803922%);stroke-opacity:1;stroke-miterlimit:4;" d="M 14.5 3.5 L 17 2 "/>
<path style="fill:none;stroke-width:1.5;stroke-linecap:round;stroke-linejoin:miter;stroke:rgb(10.980392%,15.294118%,29.803922%);stroke-opacity:1;stroke-miterlimit:4;" d="M 9.5 3.5 L 7 2 "/>
<path style="fill:none;stroke-width:1.5;stroke-linecap:round;stroke-linejoin:miter;stroke:rgb(10.980392%,15.294118%,29.803922%);stroke-opacity:1;stroke-miterlimit:4;" d="M 20.5 20 L 18.5 19.199219 "/>
<path style="fill:none;stroke-width:1.5;stroke-linecap:round;stroke-linejoin:miter;stroke:rgb(10.980392%,15.294118%,29.803922%);stroke-opacity:1;stroke-miterlimit:4;" d="M 20.5 8 L 18.5 8.800781 "/>
<path style="fill:none;stroke-width:1.5;stroke-linecap:round;stroke-linejoin:miter;stroke:rgb(10.980392%,15.294118%,29.803922%);stroke-opacity:1;stroke-miterlimit:4;" d="M 3.5 20 L 5.5 19.199219 "/>
<path style="fill:none;stroke-width:1.5;stroke-linecap:round;stroke-linejoin:miter;stroke:rgb(10.980392%,15.294118%,29.803922%);stroke-opacity:1;stroke-miterlimit:4;" d="M 3.5 8 L 5.5 8.800781 "/>
<path style="fill:none;stroke-width:1.5;stroke-linecap:round;stroke-linejoin:miter;stroke:rgb(10.980392%,15.294118%,29.803922%);stroke-opacity:1;stroke-miterlimit:4;" d="M 12 21.5 L 12 15 "/>
</g>
</svg>
