<?xml version="1.0" encoding="UTF-8"?>
<svg xmlns="http://www.w3.org/2000/svg" xmlns:xlink="http://www.w3.org/1999/xlink" width="154px" height="150px" viewBox="0 0 154 150" version="1.1">
<g id="surface1">
<path style=" stroke:none;fill-rule:nonzero;fill:rgb(0%,0%,0%);fill-opacity:1;" d="M 4.8125 37.5 L 129.9375 37.5 C 132.597656 37.5 134.75 35.402344 134.75 32.8125 L 134.75 14.0625 C 134.75 11.472656 132.597656 9.375 129.9375 9.375 L 4.8125 9.375 C 2.152344 9.375 0 11.472656 0 14.0625 L 0 32.8125 C 0 35.402344 2.152344 37.5 4.8125 37.5 Z M 149.1875 60.9375 L 24.0625 60.9375 C 21.402344 60.9375 19.25 63.035156 19.25 65.625 L 19.25 84.375 C 19.25 86.964844 21.402344 89.0625 24.0625 89.0625 L 149.1875 89.0625 C 151.847656 89.0625 154 86.964844 154 84.375 L 154 65.625 C 154 63.035156 151.847656 60.9375 149.1875 60.9375 Z M 129.9375 112.5 L 4.8125 112.5 C 2.152344 112.5 0 114.597656 0 117.1875 L 0 135.9375 C 0 138.527344 2.152344 140.625 4.8125 140.625 L 129.9375 140.625 C 132.597656 140.625 134.75 138.527344 134.75 135.9375 L 134.75 117.1875 C 134.75 114.597656 132.597656 112.5 129.9375 112.5 Z M 129.9375 112.5 "/>
</g>
</svg>
