<?xml version="1.0" encoding="UTF-8"?>
<svg xmlns="http://www.w3.org/2000/svg" xmlns:xlink="http://www.w3.org/1999/xlink" width="50px" height="50px" viewBox="0 0 50 50" version="1.1">
<g id="surface1">
<path style=" stroke:none;fill-rule:nonzero;fill:rgb(96.862745%,42.745098%,34.117647%);fill-opacity:1;" d="M 45.871094 23.417969 C 45.871094 23.417969 45.390625 24.003906 44.445312 24.953125 C 43.5 25.898438 26.105469 43.292969 26.105469 43.292969 C 25.800781 43.597656 25.398438 43.75 25 43.75 C 24.601562 43.75 24.199219 43.597656 23.894531 43.292969 C 23.894531 43.292969 6.5 25.898438 5.554688 24.949219 C 4.609375 24.003906 4.128906 23.417969 4.128906 23.417969 C 2.535156 21.519531 1.5625 19.082031 1.5625 16.40625 C 1.5625 10.367188 6.460938 5.46875 12.5 5.46875 C 15.519531 5.46875 18.253906 6.691406 20.234375 8.671875 L 20.242188 8.664062 L 23.894531 12.320312 C 24.503906 12.929688 25.496094 12.929688 26.105469 12.320312 L 29.757812 8.664062 L 29.765625 8.671875 C 31.746094 6.691406 34.480469 5.46875 37.5 5.46875 C 43.539062 5.46875 48.4375 10.367188 48.4375 16.40625 C 48.4375 19.082031 47.464844 21.519531 45.871094 23.417969 Z M 45.871094 23.417969 "/>
<path style=" stroke:none;fill-rule:nonzero;fill:rgb(96.862745%,42.745098%,34.117647%);fill-opacity:1;" d="M 45.871094 23.417969 C 45.871094 23.417969 45.390625 24.003906 44.445312 24.953125 C 43.5 25.898438 26.105469 43.292969 26.105469 43.292969 C 25.800781 43.597656 25.398438 43.75 25 43.75 C 24.601562 43.75 24.199219 43.597656 23.894531 43.292969 C 23.894531 43.292969 6.5 25.898438 5.554688 24.949219 C 4.609375 24.003906 4.128906 23.417969 4.128906 23.417969 C 2.535156 21.519531 1.5625 19.082031 1.5625 16.40625 C 1.5625 10.367188 6.460938 5.46875 12.5 5.46875 C 15.519531 5.46875 18.253906 6.691406 20.234375 8.671875 L 20.242188 8.664062 L 23.894531 12.320312 C 24.503906 12.929688 25.496094 12.929688 26.105469 12.320312 L 29.757812 8.664062 L 29.765625 8.671875 C 31.746094 6.691406 34.480469 5.46875 37.5 5.46875 C 43.539062 5.46875 48.4375 10.367188 48.4375 16.40625 C 48.4375 19.082031 47.464844 21.519531 45.871094 23.417969 Z M 45.871094 23.417969 "/>
<path style=" stroke:none;fill-rule:nonzero;fill:rgb(22.352941%,25.882353%,25.098039%);fill-opacity:1;" d="M 37.5 3.90625 C 34.046875 3.90625 30.921875 5.304688 28.660156 7.566406 L 25.554688 10.664062 C 25.246094 10.96875 24.753906 10.96875 24.449219 10.664062 C 24.449219 10.664062 21.347656 7.5625 21.339844 7.566406 C 19.078125 5.304688 15.953125 3.90625 12.5 3.90625 C 5.597656 3.90625 0 9.503906 0 16.40625 C 0 19.015625 0.800781 21.433594 2.167969 23.4375 C 2.167969 23.4375 2.738281 24.347656 3.417969 25.023438 C 4.097656 25.703125 22.789062 44.398438 22.789062 44.398438 C 23.402344 45.007812 24.199219 45.3125 25 45.3125 C 25.800781 45.3125 26.597656 45.007812 27.210938 44.398438 C 27.210938 44.398438 45.90625 25.703125 46.582031 25.023438 C 47.257812 24.347656 47.832031 23.4375 47.832031 23.4375 C 49.199219 21.433594 50 19.015625 50 16.40625 C 50 9.503906 44.402344 3.90625 37.5 3.90625 Z M 45.871094 23.417969 C 45.871094 23.417969 45.390625 24.003906 44.445312 24.953125 C 43.5 25.898438 26.105469 43.292969 26.105469 43.292969 C 25.800781 43.597656 25.398438 43.75 25 43.75 C 24.601562 43.75 24.199219 43.597656 23.894531 43.292969 C 23.894531 43.292969 6.5 25.898438 5.554688 24.949219 C 4.609375 24.003906 4.128906 23.417969 4.128906 23.417969 C 2.535156 21.519531 1.5625 19.082031 1.5625 16.40625 C 1.5625 10.367188 6.460938 5.46875 12.5 5.46875 C 15.519531 5.46875 18.253906 6.691406 20.234375 8.671875 L 20.242188 8.664062 L 23.894531 12.320312 C 24.503906 12.929688 25.496094 12.929688 26.105469 12.320312 L 29.757812 8.664062 L 29.765625 8.671875 C 31.746094 6.691406 34.480469 5.46875 37.5 5.46875 C 43.539062 5.46875 48.4375 10.367188 48.4375 16.40625 C 48.4375 19.082031 47.464844 21.519531 45.871094 23.417969 Z M 45.871094 23.417969 "/>
<path style=" stroke:none;fill-rule:nonzero;fill:rgb(22.352941%,25.882353%,25.098039%);fill-opacity:1;" d="M 37.5 8.59375 C 37.066406 8.59375 36.71875 8.941406 36.71875 9.375 C 36.71875 9.808594 37.066406 10.15625 37.5 10.15625 C 40.953125 10.15625 43.75 12.953125 43.75 16.40625 C 43.75 16.839844 44.097656 17.1875 44.53125 17.1875 C 44.964844 17.1875 45.3125 16.839844 45.3125 16.40625 C 45.3125 12.09375 41.8125 8.59375 37.5 8.59375 Z M 37.5 8.59375 "/>
</g>
</svg>
