<?xml version="1.0" encoding="UTF-8"?>
<svg xmlns="http://www.w3.org/2000/svg" xmlns:xlink="http://www.w3.org/1999/xlink" width="24px" height="24px" viewBox="0 0 24 24" version="1.1">
<g id="surface1">
<path style=" stroke:none;fill-rule:nonzero;fill:rgb(0%,0%,0%);fill-opacity:1;" d="M 18.09375 2.144531 C 18.09375 4.144531 18 4.285156 16.855469 4.285156 C 15.667969 4.285156 15.667969 4.332031 17.714844 6.714844 L 19.714844 9.09375 L 21.714844 6.808594 C 23.667969 4.570312 23.714844 4.523438 22.570312 4.382812 C 21.570312 4.238281 21.429688 4 21.429688 2.09375 C 21.429688 0 21.429688 0 19.761719 0 C 18.09375 0 18.09375 0 18.09375 2.144531 Z M 20.476562 3.046875 C 20.476562 4.285156 20.714844 5.238281 21.09375 5.382812 C 21.476562 5.523438 21.382812 5.90625 20.667969 6.617188 L 19.714844 7.667969 L 18.761719 6.617188 C 18.09375 5.855469 18.046875 5.523438 18.476562 5.382812 C 18.808594 5.238281 19.046875 4.332031 19.046875 3.046875 C 19.046875 1.523438 19.238281 0.953125 19.761719 0.953125 C 20.285156 0.953125 20.476562 1.523438 20.476562 3.046875 Z M 20.476562 3.046875 "/>
<path style=" stroke:none;fill-rule:nonzero;fill:rgb(0%,0%,0%);fill-opacity:1;" d="M 0 12.855469 L 0 21.429688 L 23.808594 21.429688 L 23.808594 13.761719 C 23.808594 8.808594 23.667969 6.238281 23.332031 6.429688 C 23.046875 6.617188 22.855469 9.144531 22.855469 12.429688 L 22.855469 18.144531 L 19.714844 15.617188 L 16.570312 13.09375 L 18.046875 11.855469 C 19.476562 10.667969 19.90625 10 19.191406 10 C 18.953125 10 17.429688 11.191406 15.714844 12.617188 C 14.046875 14.046875 12.332031 15.238281 11.90625 15.238281 C 10.953125 15.238281 1.238281 6.953125 1.046875 5.953125 C 0.90625 5.332031 1.90625 5.238281 7.808594 5.238281 C 12.144531 5.238281 14.761719 5.046875 14.761719 4.761719 C 14.761719 4.476562 12 4.285156 7.382812 4.285156 L 0 4.285156 Z M 4.429688 10.617188 L 7.191406 13.144531 L 4.046875 15.617188 L 0.953125 18.144531 L 0.953125 13.09375 C 0.953125 10.332031 1.09375 8.09375 1.332031 8.09375 C 1.523438 8.144531 2.90625 9.285156 4.429688 10.617188 Z M 11.90625 16.191406 C 12.285156 16.191406 13.382812 15.667969 14.332031 15.046875 L 16.046875 13.90625 L 19.332031 16.523438 C 21.144531 17.953125 22.667969 19.429688 22.761719 19.808594 C 22.90625 20.382812 21.191406 20.476562 11.90625 20.476562 C 2.617188 20.476562 0.90625 20.382812 1.046875 19.808594 C 1.144531 19.429688 2.667969 17.953125 4.476562 16.523438 L 7.761719 13.90625 L 9.476562 15.046875 C 10.429688 15.667969 11.523438 16.191406 11.90625 16.191406 Z M 11.90625 16.191406 "/>
</g>
</svg>
