<?xml version="1.0" encoding="UTF-8"?>
<svg xmlns="http://www.w3.org/2000/svg" xmlns:xlink="http://www.w3.org/1999/xlink" width="24px" height="24px" viewBox="0 0 24 24" version="1.1">
<g id="surface1">
<path style=" stroke:none;fill-rule:nonzero;fill:rgb(0%,0%,0%);fill-opacity:1;" d="M 8.160156 11.203125 L 16.050781 11.203125 L 16.050781 13.078125 L 8.160156 13.078125 Z M 8.160156 14.746094 L 16.050781 14.746094 L 16.050781 16.621094 L 8.160156 16.621094 Z M 8.160156 7.605469 L 16.050781 7.605469 L 16.050781 9.480469 L 8.160156 9.480469 Z M 8.160156 7.605469 "/>
<path style=" stroke:none;fill-rule:nonzero;fill:rgb(0%,0%,0%);fill-opacity:1;" d="M 17.011719 1.5 L 14.460938 0.421875 L 12.121094 1.5 L 9.613281 0.421875 L 7.261719 1.5 L 3.691406 0 L 3.691406 24 L 7.261719 22.5 L 9.613281 23.535156 L 12.121094 22.5 L 14.460938 23.535156 L 17.011719 22.5 L 20.308594 24 L 20.308594 0 Z M 18.421875 21.164062 L 17.039062 20.550781 L 14.503906 21.585938 L 12.148438 20.503906 L 9.628906 21.539062 L 7.304688 20.503906 L 5.578125 21.210938 L 5.578125 2.789062 L 7.304688 3.496094 L 9.628906 2.460938 L 12.148438 3.496094 L 14.503906 2.460938 L 17.039062 3.496094 L 18.421875 2.878906 Z M 18.421875 21.164062 "/>
</g>
</svg>
