<?xml version="1.0" encoding="UTF-8"?>
<svg xmlns="http://www.w3.org/2000/svg" xmlns:xlink="http://www.w3.org/1999/xlink" width="50px" height="50px" viewBox="0 0 50 50" version="1.1">
<g id="surface1">
<path style=" stroke:none;fill-rule:evenodd;fill:rgb(56.470588%,87.843137%,93.72549%);fill-opacity:1;" d="M 14.0625 20.3125 C 14.0625 18.585938 12.664062 17.1875 10.9375 17.1875 C 9.933594 17.1875 8.816406 17.1875 7.8125 17.1875 C 6.085938 17.1875 4.6875 18.585938 4.6875 20.3125 C 4.6875 24.796875 4.6875 33.015625 4.6875 37.5 C 4.6875 39.226562 6.085938 40.625 7.8125 40.625 C 8.816406 40.625 9.933594 40.625 10.9375 40.625 C 12.664062 40.625 14.0625 39.226562 14.0625 37.5 C 14.0625 33.015625 14.0625 24.796875 14.0625 20.3125 Z M 14.0625 20.3125 "/>
<path style=" stroke:none;fill-rule:evenodd;fill:rgb(56.470588%,87.843137%,93.72549%);fill-opacity:1;" d="M 20.367188 19.476562 C 20.367188 18.925781 20.507812 18.386719 20.785156 17.914062 C 21.785156 16.175781 24.34375 11.75 25.714844 9.375 C 26.273438 8.40625 27.304688 7.8125 28.421875 7.8125 C 28.613281 7.8125 28.820312 7.8125 29.023438 7.8125 C 29.964844 7.8125 30.855469 8.234375 31.449219 8.964844 C 32.042969 9.695312 32.277344 10.652344 32.085938 11.570312 C 31.714844 13.359375 31.289062 15.417969 30.984375 16.871094 C 30.890625 17.328125 31.007812 17.808594 31.304688 18.171875 C 31.601562 18.539062 32.046875 18.75 32.515625 18.75 C 34.984375 18.75 39.296875 18.75 42.242188 18.75 C 43.070312 18.75 43.863281 19.078125 44.449219 19.664062 C 45.035156 20.25 45.367188 21.046875 45.367188 21.875 C 45.367188 24.996094 45.367188 29.625 45.367188 31.714844 C 45.367188 32.425781 45.125 33.113281 44.679688 33.667969 C 43.558594 35.070312 41.324219 37.867188 40.054688 39.453125 C 39.460938 40.195312 38.5625 40.625 37.613281 40.625 C 34.5625 40.625 27.574219 40.625 23.492188 40.625 C 21.765625 40.625 20.367188 39.226562 20.367188 37.5 C 20.367188 32.363281 20.367188 22.414062 20.367188 19.476562 Z M 20.367188 19.476562 "/>
<path style=" stroke:none;fill-rule:evenodd;fill:rgb(9.803922%,56.470588%,65.490196%);fill-opacity:1;" d="M 32.515625 17.1875 C 32.515625 17.1875 33.617188 11.890625 33.617188 11.890625 C 33.902344 10.507812 33.550781 9.070312 32.664062 7.976562 C 31.773438 6.882812 30.4375 6.25 29.027344 6.25 L 28.421875 6.25 C 26.746094 6.25 25.199219 7.144531 24.359375 8.59375 C 22.988281 10.96875 20.433594 15.394531 19.429688 17.132812 C 19.019531 17.84375 18.804688 18.652344 18.804688 19.476562 L 18.804688 37.5 C 18.804688 40.089844 20.902344 42.1875 23.492188 42.1875 L 37.613281 42.1875 C 39.039062 42.1875 40.382812 41.539062 41.273438 40.429688 C 42.542969 38.84375 44.777344 36.046875 45.902344 34.644531 C 46.566406 33.8125 46.929688 32.78125 46.929688 31.714844 L 46.929688 21.875 C 46.929688 20.632812 46.433594 19.4375 45.554688 18.5625 C 44.675781 17.679688 43.484375 17.1875 42.242188 17.1875 Z M 15.625 20.3125 C 15.625 17.722656 13.527344 15.625 10.9375 15.625 L 7.8125 15.625 C 5.222656 15.625 3.125 17.722656 3.125 20.3125 C 3.125 24.796875 3.125 33.015625 3.125 37.5 C 3.125 40.089844 5.222656 42.1875 7.8125 42.1875 L 10.9375 42.1875 C 13.527344 42.1875 15.625 40.089844 15.625 37.5 Z M 21.929688 37.5 L 21.929688 19.476562 C 21.929688 19.203125 22 18.929688 22.136719 18.695312 L 27.066406 10.15625 C 27.347656 9.671875 27.863281 9.375 28.421875 9.375 C 28.421875 9.375 29.027344 9.375 29.027344 9.375 C 29.496094 9.375 29.941406 9.585938 30.238281 9.953125 C 30.535156 10.316406 30.652344 10.796875 30.554688 11.253906 L 29.457031 16.554688 C 29.265625 17.472656 29.5 18.429688 30.09375 19.160156 C 30.6875 19.890625 31.578125 20.3125 32.515625 20.3125 L 42.242188 20.3125 C 42.65625 20.3125 43.054688 20.476562 43.34375 20.769531 C 43.640625 21.0625 43.804688 21.460938 43.804688 21.875 L 43.804688 31.714844 C 43.804688 32.070312 43.683594 32.414062 43.460938 32.691406 L 38.835938 38.476562 C 38.539062 38.847656 38.089844 39.0625 37.613281 39.0625 C 37.613281 39.0625 23.492188 39.0625 23.492188 39.0625 C 22.628906 39.0625 21.929688 38.363281 21.929688 37.5 Z M 12.5 20.3125 L 12.5 37.5 C 12.5 38.363281 11.800781 39.0625 10.9375 39.0625 C 10.9375 39.0625 7.8125 39.0625 7.8125 39.0625 C 6.949219 39.0625 6.25 38.363281 6.25 37.5 L 6.25 20.3125 C 6.25 19.449219 6.949219 18.75 7.8125 18.75 C 7.8125 18.75 10.9375 18.75 10.9375 18.75 C 11.800781 18.75 12.5 19.449219 12.5 20.3125 Z M 12.5 20.3125 "/>
</g>
</svg>
