<?xml version="1.0" encoding="UTF-8"?>
<svg xmlns="http://www.w3.org/2000/svg" xmlns:xlink="http://www.w3.org/1999/xlink" width="24px" height="24px" viewBox="0 0 24 24" version="1.1">
<g id="surface1">
<path style="fill:none;stroke-width:2;stroke-linecap:round;stroke-linejoin:round;stroke:rgb(0%,0%,0%);stroke-opacity:1;stroke-miterlimit:4;" d="M 13 3 L 8.199219 3 C 7.078125 3 6.519531 3 6.09375 3.21875 C 5.714844 3.410156 5.410156 3.714844 5.21875 4.09375 C 5 4.519531 5 5.078125 5 6.199219 L 5 17.800781 C 5 18.921875 5 19.480469 5.21875 19.90625 C 5.410156 20.285156 5.714844 20.589844 6.09375 20.78125 C 6.519531 21 7.078125 21 8.199219 21 L 12 21 M 13 3 L 19 9 M 13 3 L 13 7.398438 C 13 7.960938 13 8.238281 13.109375 8.453125 C 13.203125 8.640625 13.359375 8.796875 13.546875 8.890625 C 13.761719 9 14.039062 9 14.601562 9 L 19 9 M 19 9 L 19 11 M 9 17 L 11 17 M 9 13 L 13 13 M 9 9 L 10 9 M 19.269531 19.269531 L 21 21 M 20 17.5 C 20 18.878906 18.878906 20 17.5 20 C 16.121094 20 15 18.878906 15 17.5 C 15 16.121094 16.121094 15 17.5 15 C 18.878906 15 20 16.121094 20 17.5 Z M 20 17.5 "/>
</g>
</svg>
