<?xml version="1.0" encoding="UTF-8"?>
<svg xmlns="http://www.w3.org/2000/svg" xmlns:xlink="http://www.w3.org/1999/xlink" width="24px" height="24px" viewBox="0 0 24 24" version="1.1">
<g id="surface1">
<path style="fill:none;stroke-width:1.5;stroke-linecap:round;stroke-linejoin:round;stroke:rgb(0%,0%,0%);stroke-opacity:1;stroke-miterlimit:4;" d="M 14.140625 12 C 14.140625 13.105469 13.265625 14 12.191406 14 C 11.113281 14 10.238281 13.105469 10.238281 12 C 10.238281 10.894531 11.113281 10 12.191406 10 C 13.265625 10 14.140625 10.894531 14.140625 12 Z M 14.140625 12 "/>
<path style="fill:none;stroke-width:1.5;stroke-linecap:round;stroke-linejoin:round;stroke:rgb(0%,0%,0%);stroke-opacity:1;stroke-miterlimit:4;" d="M 7.574219 18.101562 L 5.121094 12.8125 C 4.792969 12.289062 4.792969 11.617188 5.121094 11.097656 L 7.558594 5.890625 C 7.929688 5.324219 8.558594 4.988281 9.226562 5 L 15.152344 5 C 15.820312 4.988281 16.449219 5.324219 16.820312 5.890625 L 19.253906 11.09375 C 19.582031 11.613281 19.582031 12.285156 19.253906 12.808594 L 16.804688 18.101562 C 16.433594 18.675781 15.800781 19.011719 15.128906 19 L 9.25 19 C 8.578125 19.011719 7.945312 18.671875 7.574219 18.101562 Z M 7.574219 18.101562 "/>
</g>
</svg>
