<?xml version="1.0" encoding="UTF-8"?>
<svg xmlns="http://www.w3.org/2000/svg" xmlns:xlink="http://www.w3.org/1999/xlink" width="24px" height="24px" viewBox="0 0 24 24" version="1.1">
<g id="surface1">
<path style="fill:none;stroke-width:2;stroke-linecap:round;stroke-linejoin:round;stroke:rgb(0%,0%,0%);stroke-opacity:1;stroke-miterlimit:4;" d="M 8 6 L 21 6 M 8 12 L 21 12 M 8 18 L 21 18 M 3.5 6 L 3.511719 6 M 3.5 12 L 3.511719 12 M 3.5 18 L 3.511719 18 M 4 6 C 4 6.277344 3.777344 6.5 3.5 6.5 C 3.222656 6.5 3 6.277344 3 6 C 3 5.722656 3.222656 5.5 3.5 5.5 C 3.777344 5.5 4 5.722656 4 6 Z M 4 12 C 4 12.277344 3.777344 12.5 3.5 12.5 C 3.222656 12.5 3 12.277344 3 12 C 3 11.722656 3.222656 11.5 3.5 11.5 C 3.777344 11.5 4 11.722656 4 12 Z M 4 18 C 4 18.277344 3.777344 18.5 3.5 18.5 C 3.222656 18.5 3 18.277344 3 18 C 3 17.722656 3.222656 17.5 3.5 17.5 C 3.777344 17.5 4 17.722656 4 18 Z M 4 18 "/>
</g>
</svg>
