<?xml version="1.0" encoding="UTF-8"?>
<svg xmlns="http://www.w3.org/2000/svg" xmlns:xlink="http://www.w3.org/1999/xlink" width="24px" height="24px" viewBox="0 0 24 24" version="1.1">
<g id="surface1">
<path style="fill:none;stroke-width:2;stroke-linecap:round;stroke-linejoin:round;stroke:rgb(0%,0%,0%);stroke-opacity:1;stroke-miterlimit:4;" d="M 6 8 L 4 8 M 6 16 L 4 16 M 6 12 L 3 12 M 7 4.515625 C 8.429688 3.558594 10.148438 3 12 3 C 16.96875 3 21 7.03125 21 12 C 21 16.96875 16.96875 21 12 21 C 10.148438 21 8.429688 20.441406 7 19.484375 M 14 9.5 C 13.5 9.375 12.683594 9.371094 12 9.375 M 12 9.375 C 11.769531 9.378906 11.910156 9.367188 11.601562 9.375 C 10.792969 9.402344 10 9.738281 10 10.6875 C 10 11.699219 11 12 12 12 C 13 12 14 12.230469 14 13.3125 C 14 14.125 13.191406 14.480469 12.1875 14.597656 C 12.121094 14.597656 12.058594 14.597656 12 14.597656 M 12 9.375 L 12 8 M 12 14.597656 C 11.320312 14.601562 10.917969 14.613281 10 14.5 M 12 14.597656 L 12 16 "/>
</g>
</svg>
