<?xml version="1.0" encoding="UTF-8"?>
<svg xmlns="http://www.w3.org/2000/svg" xmlns:xlink="http://www.w3.org/1999/xlink" width="24px" height="24px" viewBox="0 0 24 24" version="1.1">
<g id="surface1">
<path style=" stroke:none;fill-rule:nonzero;fill:rgb(0%,0%,0%);fill-opacity:1;" d="M 4.363281 2.183594 L 19.636719 2.183594 L 19.636719 3.273438 L 20.726562 3.273438 L 20.726562 4.363281 L 21.816406 4.363281 L 21.816406 19.636719 L 20.726562 19.636719 L 20.726562 20.726562 L 19.636719 20.726562 L 19.636719 21.816406 L 4.363281 21.816406 L 4.363281 20.726562 L 3.273438 20.726562 L 3.273438 19.636719 L 2.183594 19.636719 L 2.183594 4.363281 L 3.273438 4.363281 L 3.273438 3.273438 L 4.363281 3.273438 L 4.363281 2.183594 M 4.363281 17.453125 L 5.453125 17.453125 L 5.453125 16.363281 L 7.636719 16.363281 L 7.636719 15.273438 L 16.363281 15.273438 L 16.363281 16.363281 L 18.546875 16.363281 L 18.546875 17.453125 L 19.636719 17.453125 L 19.636719 5.453125 L 18.546875 5.453125 L 18.546875 4.363281 L 5.453125 4.363281 L 5.453125 5.453125 L 4.363281 5.453125 L 4.363281 17.453125 M 17.453125 19.636719 L 17.453125 18.546875 L 15.273438 18.546875 L 15.273438 17.453125 L 8.726562 17.453125 L 8.726562 18.546875 L 6.546875 18.546875 L 6.546875 19.636719 L 17.453125 19.636719 M 9.816406 5.453125 L 14.183594 5.453125 L 14.183594 6.546875 L 15.273438 6.546875 L 15.273438 7.636719 L 16.363281 7.636719 L 16.363281 12 L 15.273438 12 L 15.273438 13.089844 L 14.183594 13.089844 L 14.183594 14.183594 L 9.816406 14.183594 L 9.816406 13.089844 L 8.726562 13.089844 L 8.726562 12 L 7.636719 12 L 7.636719 7.636719 L 8.726562 7.636719 L 8.726562 6.546875 L 9.816406 6.546875 L 9.816406 5.453125 M 13.089844 8.726562 L 13.089844 7.636719 L 10.910156 7.636719 L 10.910156 8.726562 L 9.816406 8.726562 L 9.816406 10.910156 L 10.910156 10.910156 L 10.910156 12 L 13.089844 12 L 13.089844 10.910156 L 14.183594 10.910156 L 14.183594 8.726562 Z M 13.089844 8.726562 "/>
</g>
</svg>
