<?xml version="1.0" encoding="UTF-8"?>
<svg xmlns="http://www.w3.org/2000/svg" xmlns:xlink="http://www.w3.org/1999/xlink" width="50px" height="50px" viewBox="0 0 50 50" version="1.1">
<g id="surface1">
<path style=" stroke:none;fill-rule:nonzero;fill:rgb(26.666667%,75.294118%,77.647059%);fill-opacity:1;" d="M 1.464844 25.226562 C 1.464844 38.289062 12.054688 48.882812 25.121094 48.882812 C 38.1875 48.882812 48.78125 38.289062 48.78125 25.226562 C 48.78125 12.160156 38.1875 1.566406 25.121094 1.566406 C 12.054688 1.566406 1.464844 12.160156 1.464844 25.222656 Z M 1.464844 25.226562 "/>
<path style=" stroke:none;fill-rule:nonzero;fill:rgb(0%,0%,0%);fill-opacity:1;" d="M 25.121094 49.367188 C 21.867188 49.367188 18.703125 48.726562 15.722656 47.464844 C 12.847656 46.25 10.265625 44.507812 8.046875 42.289062 C 5.828125 40.074219 4.085938 37.492188 2.871094 34.613281 C 1.613281 31.636719 0.972656 28.476562 0.972656 25.214844 C 0.972656 21.953125 1.609375 18.792969 2.871094 15.816406 C 4.085938 12.9375 5.828125 10.355469 8.046875 8.140625 C 10.265625 5.921875 12.847656 4.179688 15.722656 2.964844 C 18.703125 1.703125 21.859375 1.0625 25.121094 1.0625 C 28.382812 1.0625 31.542969 1.71875 34.523438 2.976562 C 37.398438 4.195312 39.980469 5.9375 42.195312 8.15625 C 44.414062 10.371094 46.15625 12.953125 47.375 15.828125 C 48.632812 18.808594 49.273438 21.96875 49.273438 25.230469 C 49.273438 28.492188 48.632812 31.652344 47.375 34.628906 C 46.15625 37.503906 44.414062 40.085938 42.195312 42.304688 C 39.980469 44.523438 37.398438 46.265625 34.523438 47.480469 C 31.542969 48.730469 28.382812 49.367188 25.121094 49.367188 Z M 25.121094 2.054688 C 21.992188 2.054688 18.960938 2.667969 16.101562 3.878906 C 13.34375 5.042969 10.871094 6.714844 8.742188 8.84375 C 6.609375 10.972656 4.941406 13.449219 3.773438 16.207031 C 2.570312 19.0625 1.953125 22.09375 1.953125 25.226562 C 1.953125 28.355469 2.5625 31.386719 3.773438 34.242188 C 4.941406 37 6.609375 39.476562 8.742188 41.605469 C 10.867188 43.734375 13.34375 45.40625 16.101562 46.570312 C 18.960938 47.777344 21.992188 48.394531 25.121094 48.394531 C 28.25 48.394531 31.285156 47.78125 34.140625 46.570312 C 36.898438 45.40625 39.375 43.734375 41.503906 41.605469 C 43.632812 39.476562 45.304688 37 46.46875 34.242188 C 47.675781 31.386719 48.289062 28.355469 48.289062 25.222656 C 48.289062 22.09375 47.679688 19.0625 46.46875 16.207031 C 45.304688 13.445312 43.632812 10.972656 41.503906 8.84375 C 39.375 6.714844 36.898438 5.042969 34.140625 3.875 C 31.285156 2.671875 28.25 2.054688 25.121094 2.054688 Z M 25.121094 2.054688 "/>
<path style=" stroke:none;fill-rule:nonzero;fill:rgb(37.647059%,75.686275%,23.921569%);fill-opacity:1;" d="M 25.78125 1.601562 C 22.875 5.042969 20.242188 9.574219 26.519531 9.574219 C 36.644531 9.574219 34.007812 17.035156 22.671875 17.570312 C 11.328125 18.101562 14.527344 26.097656 20.921875 26.894531 C 24.859375 27.386719 26.265625 29.390625 26.773438 31.292969 L 26.773438 31.367188 C 26.773438 32.414062 26.875 33.40625 27.054688 34.332031 L 27.054688 34.351562 C 27.054688 34.46875 27.078125 34.574219 27.125 34.667969 C 27.816406 37.816406 29.460938 38.4375 31.386719 38.4375 C 33.933594 38.4375 35.644531 33.121094 35.953125 30.195312 C 36.425781 25.761719 40.925781 25.792969 40.644531 20.226562 C 40.5625 18.617188 44.761719 18.558594 47.878906 18.808594 C 45.140625 9.070312 36.328125 1.890625 25.78125 1.601562 Z M 25.78125 1.601562 "/>
<path style=" stroke:none;fill-rule:nonzero;fill:rgb(0%,0%,0%);fill-opacity:1;" d="M 31.382812 38.9375 C 29.605469 38.9375 27.464844 38.46875 26.652344 34.828125 C 26.597656 34.691406 26.566406 34.539062 26.5625 34.382812 C 26.378906 33.398438 26.28125 32.386719 26.28125 31.371094 L 26.28125 31.355469 C 25.644531 29.0625 23.867188 27.757812 20.859375 27.382812 C 19.15625 27.167969 17.570312 26.460938 16.398438 25.386719 C 15.234375 24.320312 14.601562 22.992188 14.648438 21.738281 C 14.683594 20.859375 15.058594 19.601562 16.671875 18.585938 C 18.058594 17.710938 20.070312 17.207031 22.648438 17.085938 C 26.382812 16.910156 28.703125 16.015625 29.992188 15.292969 C 31.484375 14.457031 32.363281 13.410156 32.339844 12.492188 C 32.316406 11.371094 30.773438 10.070312 26.519531 10.070312 C 24.300781 10.070312 22.921875 9.503906 22.402344 8.390625 C 21.996094 7.515625 22.160156 6.34375 22.886719 4.914062 C 23.421875 3.859375 24.273438 2.636719 25.410156 1.289062 C 25.507812 1.175781 25.648438 1.113281 25.796875 1.117188 C 28.433594 1.191406 31.015625 1.683594 33.472656 2.589844 C 35.851562 3.460938 38.066406 4.707031 40.0625 6.285156 C 42.039062 7.847656 43.753906 9.699219 45.160156 11.789062 C 46.585938 13.910156 47.660156 16.230469 48.351562 18.6875 C 48.394531 18.839844 48.359375 19.003906 48.257812 19.132812 C 48.15625 19.253906 48 19.320312 47.84375 19.308594 C 44.449219 19.035156 41.929688 19.269531 41.257812 19.917969 C 41.136719 20.035156 41.128906 20.132812 41.128906 20.210938 C 41.292969 23.480469 39.859375 25.003906 38.589844 26.347656 C 37.582031 27.417969 36.632812 28.421875 36.4375 30.253906 C 36.253906 31.957031 35.667969 34.0625 34.945312 35.625 C 33.945312 37.792969 32.714844 38.9375 31.382812 38.9375 Z M 26 2.09375 C 23.746094 4.804688 22.78125 6.890625 23.285156 7.972656 C 23.714844 8.890625 25.277344 9.085938 26.519531 9.085938 C 28.617188 9.085938 30.289062 9.394531 31.480469 10 C 32.636719 10.589844 33.289062 11.464844 33.3125 12.464844 C 33.339844 13.773438 32.304688 15.117188 30.464844 16.140625 C 29.082031 16.914062 26.617188 17.871094 22.691406 18.054688 C 18.34375 18.261719 15.703125 19.648438 15.621094 21.773438 C 15.582031 22.738281 16.105469 23.792969 17.050781 24.664062 C 18.078125 25.605469 19.472656 26.226562 20.976562 26.410156 C 24.40625 26.839844 26.515625 28.441406 27.238281 31.171875 C 27.246094 31.210938 27.25 31.253906 27.25 31.296875 L 27.25 31.371094 C 27.25 32.339844 27.34375 33.304688 27.523438 34.242188 C 27.53125 34.273438 27.535156 34.304688 27.535156 34.335938 L 27.535156 34.355469 C 27.535156 34.398438 27.542969 34.4375 27.558594 34.472656 C 27.574219 34.5 27.582031 34.535156 27.59375 34.570312 C 28.207031 37.378906 29.554688 37.953125 31.382812 37.953125 C 32.609375 37.953125 33.589844 36.234375 34.0625 35.214844 C 34.886719 33.425781 35.335938 31.367188 35.464844 30.152344 C 35.695312 27.992188 36.808594 26.816406 37.875 25.679688 C 39.121094 24.359375 40.296875 23.109375 40.152344 20.257812 C 40.132812 19.867188 40.277344 19.507812 40.578125 19.21875 C 41.113281 18.699219 42.148438 18.386719 43.75 18.269531 C 44.925781 18.183594 46.191406 18.222656 47.207031 18.28125 C 46.542969 16.171875 45.585938 14.175781 44.347656 12.328125 C 43 10.320312 41.351562 8.542969 39.453125 7.046875 C 37.539062 5.53125 35.410156 4.339844 33.125 3.5 C 30.84375 2.660156 28.449219 2.1875 26 2.09375 Z M 26 2.09375 "/>
</g>
</svg>
